# xmcd
#
# Track frame offsets: 
#        150
#        17507
#        37857
#        54820
#        75342
#        92147
#        112902
#        137282
#        152217
#        170955
#
# Disc length: 2405 seconds
#
# Revision: 4
# Processed by: cddbd v1.5.2PL0 Copyright (c) Steve Scherf et al.
# Submitted via: ExactAudioCopy v0.99pb5
#
DISCID=6709630a
DTITLE=Muddy Waters - King Bee
DYEAR=1900
DGENRE=Blues
TTITLE0=I'm A King Bee
TTITLE1=Too Young To Know
TTITLE2=Mean Old Frisco Blues
TTITLE3=Forever Lonely
TTITLE4=I Feel Like Going Home
TTITLE5=Champagne and Reefer
TTITLE6=Sad Sad Day
TTITLE7=(My Eyes) Keep Me In Trouble
TTITLE8=Deep Down In Florida #2
TTITLE9=No Escape From The Blues
EXTD=
EXTT0=
EXTT1=
EXTT2=
EXTT3=
EXTT4=
EXTT5=
EXTT6=
EXTT7=
EXTT8=
EXTT9=
PLAYORDER=
